PathFileType	4	(X/Y/Z)	C:/Users/opensim2020/Desktop/walking_exp_matlab/subject02_walking09_straight_02.trc																																																																																																																												
DataRate	CameraRate	NumFrames	NumMarkers	Units	OrigDataRate	OrigDataStartFrame	OrigNumFrames																																																																																																																								
100	100	8	42	mm	100	1268	436																																																																																																																								
Frame#	Time	LFHD			RFHD			LBHD			RBHD			C7			T10			CLAV			STRN			RBAK			LSHO			LUPA			LELB			LFRM			LWRA			LWRB			LFIN			RSHO			RUPA			RELB			RFRM			RWRA			RWRB			RFIN			LASI			RASI			LPSI			RPSI			LTHI			LKNE			LTIB			LANK			LHEE			LTOE			RTHI			RKNE			RTIB			RANK			RHEE			RTOE			*39			*40			*41		
		X1	Y1	Z1	X2	Y2	Z2	X3	Y3	Z3	X4	Y4	Z4	X5	Y5	Z5	X6	Y6	Z6	X7	Y7	Z7	X8	Y8	Z8	X9	Y9	Z9	X10	Y10	Z10	X11	Y11	Z11	X12	Y12	Z12	X13	Y13	Z13	X14	Y14	Z14	X15	Y15	Z15	X16	Y16	Z16	X17	Y17	Z17	X18	Y18	Z18	X19	Y19	Z19	X20	Y20	Z20	X21	Y21	Z21	X22	Y22	Z22	X23	Y23	Z23	X24	Y24	Z24	X25	Y25	Z25	X26	Y26	Z26	X27	Y27	Z27	X28	Y28	Z28	X29	Y29	Z29	X30	Y30	Z30	X31	Y31	Z31	X32	Y32	Z32	X33	Y33	Z33	X34	Y34	Z34	X35	Y35	Z35	X36	Y36	Z36	X37	Y37	Z37	X38	Y38	Z38	X39	Y39	Z39	X40	Y40	Z40	X41	Y41	Z41	X42	Y42	Z42
																																																																																																																															
55	0.54	-1701.57422	1742.60425	-1166.89709	-1670.68347	1717.36987	-1029.85364	-1830.12952	1666.08154	-1148.56238	-1811.78772	1640.28467	-1010.74811	-1862.61865	1528.71875	-1042.83496	-1912.98376	1254.57178	-1001.26929	-1752.21045	1454.09814	-1125.17139	-1706.55786	1281.48718	-1141.08533	-1880.26831	1357.67346	-949.5235	-1905.27466	1500.14258	-1226.36951	-2000.46167	1314.01721	-1267.73901	-2039.41492	1179.11169	-1260.3855	-2079.37012	1053.77112	-1269.57446	-2056.72729	914.81891	-1279.94336	-2112.80884	935.40436	-1275.07263	-2116.87305	867.20068	-1283.02563	-1695.26648	1493.39246	-928.94043	-1652.56738	1300.28931	-850.58527	-1606.83777	1158.13037	-858.15741	-1545.12134	1055.81848	-882.50018	-1484.93237	955.19092	-951.13965	-1504.25061	933.41504	-902.90619	-1453.84595	890.45532	-932.44867	-1790.25049	992.42072	-1242.91931	-1663.13647	965.60321	-1018.74249	-1931.1012	1036.58728	-1065.19312	-1878.68677	1033.62024	-963.86487	-1843.16882	696.7522	-1311.40259	-1804.5094	499.19766	-1317.45227	-1810.98218	306.3049	-1334.26489	-1744.32312	91.92051	-1367.90552	-1741.76379	56.20212	-1312.25598	-1609.32166	81.87669	-1453.16711	-1751.07166	666.91779	-917.22778	-1814.02612	462.26031	-933.39209	-1890.71191	294.86859	-887.05463	-1972.48914	114.47671	-889.81409	-2042.22327	66.84945	-913.8443	-1846.42529	45.38135	-954.0777	-1780.42468	1801.36389	-1052.56604	-2845.11865	1034.17517	3360.18604	NaN	NaN	NaN
56	0.55	-1696.52271	1741.99878	-1172.3136	-1665.98108	1716.37952	-1035.04041	-1824.99939	1665.26147	-1154.35693	-1806.95776	1639.38965	-1016.55212	-1857.44336	1527.84314	-1048.79041	-1907.64099	1253.56653	-1007.58398	-1746.74377	1453.47925	-1131.06335	-1700.68152	1280.84814	-1146.66479	-1875.19263	1356.69434	-955.61426	-1900.0072	1499.3302	-1232.70508	-1993.09009	1311.92273	-1271.90564	-2033.90161	1178.30664	-1266.56677	-2074.15601	1053.12488	-1275.88586	-2052.02808	914.18555	-1286.53186	-2107.84131	935.08105	-1280.80188	-2112.29199	866.72162	-1289.54028	-1690.30798	1492.58459	-934.47375	-1648.1665	1299.60693	-855.88763	-1603.21375	1157.01721	-862.914	-1541.5072	1054.34216	-886.97223	-1482.25171	953.30261	-955.2113	-1501.82349	931.68719	-906.67651	-1451.5885	888.30627	-936.0838	-1783.41968	991.88342	-1248.96167	-1657.24817	964.99304	-1024.25781	-1925.17627	1035.75049	-1071.96387	-1873.30481	1032.80542	-970.41431	-1835.59717	695.77301	-1317.48279	-1796.10669	497.957	-1322.02869	-1804.36951	305.03296	-1337.69421	-1738.75159	90.01133	-1369.26563	-1736.62024	54.54605	-1313.55664	-1603.34485	78.78806	-1453.6897	-1746.9187	666.58533	-921.104	-1810.5343	462.12515	-936.31757	-1888.70581	295.75079	-888.75983	-1972.08801	115.87868	-890.08063	-2041.80762	68.671	-913.84143	-1846.27539	45.39582	-953.99628	-1775.35266	1800.4519	-1057.547	-2845.24829	1034.08508	3360.22803	NaN	NaN	NaN
57	0.56	-1691.51965	1741.42419	-1177.76868	-1661.10779	1715.88733	-1040.48816	-1819.87561	1664.41956	-1160.24036	-1802.01111	1638.46814	-1022.27515	-1852.26392	1526.91907	-1054.68872	-1902.20215	1252.44666	-1014.0293	-1741.17468	1452.8783	-1136.93335	-1694.85632	1280.24231	-1152.35132	-1870.0885	1355.6698	-961.77032	-1894.1792	1498.37061	-1238.56238	-1987.34033	1311.01563	-1278.13245	-2028.33337	1177.58191	-1273.09167	-2068.79956	1052.49268	-1282.41418	-2046.96851	913.44171	-1293.09204	-2099.93481	932.0509	-1284.18359	-2107.43799	866.21179	-1296.26208	-1685.43433	1491.78882	-939.91003	-1643.94885	1298.84985	-861.15027	-1599.69434	1156.11365	-867.92981	-1539.25525	1052.93384	-891.2431	-1479.86938	951.19904	-959.00354	-1499.64746	929.90948	-910.42133	-1449.6781	886.07611	-939.42664	-1776.52002	991.59436	-1255.54065	-1651.53821	964.13733	-1029.60181	-1919.1698	1034.87219	-1079.01379	-1867.83765	1031.96448	-977.26721	-1828.06042	694.69763	-1323.45837	-1788.79724	496.71295	-1326.73914	-1798.06421	303.71909	-1341.0614	-1733.65112	87.99911	-1370.61377	-1731.61902	52.44224	-1314.46265	-1597.71655	75.69078	-1454.12415	-1742.64111	666.26373	-925.3811	-1806.87817	462.0387	-939.37933	-1886.57056	296.71674	-890.60114	-1971.40149	117.47737	-890.47504	-2041.27405	70.637	-913.87158	-1846.04407	45.34963	-953.88611	-1770.68762	1799.62463	-1063.20862	-2845.146	1034.05737	3360.28198	NaN	NaN	NaN
58	0.57	-1686.50806	1740.82397	-1183.35059	-1656.47607	1715.41602	-1046.25732	-1814.70386	1663.54895	-1166.09766	-1797.08276	1637.6051	-1028.14148	-1847.16931	1525.99011	-1060.8053	-1896.77332	1251.30347	-1020.65094	-1735.67285	1452.1532	-1142.76013	-1688.82422	1279.90833	-1158.52307	-1865.05896	1354.56116	-968.10101	-1888.74292	1497.58008	-1244.95227	-1983.8894	1311.65942	-1287.27441	-2022.63904	1176.80444	-1279.60583	-2063.31592	1051.81555	-1289.12915	-2041.6311	912.67017	-1299.88049	-2094.59595	931.44513	-1290.9303	-2102.39648	865.7807	-1303.31885	-1680.5675	1491.01892	-945.55902	-1639.43481	1298.11462	-866.72876	-1596.33875	1155.20947	-873.28522	-1536.50073	1051.65332	-895.64252	-1477.42639	948.87183	-962.46948	-1497.66345	928.14758	-914.02502	-1447.93616	883.63477	-942.67841	-1769.19263	991.09467	-1261.92212	-1645.70361	963.52332	-1035.55933	-1912.97595	1033.99036	-1086.42578	-1862.32117	1031.03455	-984.25836	-1820.57312	693.52417	-1329.42163	-1781.79736	495.48743	-1331.55322	-1792.05847	302.31873	-1344.38086	-1728.86707	85.90915	-1371.95959	-1728.16553	50.99074	-1315.72131	-1592.25256	72.15389	-1453.9834	-1738.3147	665.94586	-929.74005	-1803.07861	461.90866	-942.58728	-1884.42126	297.71414	-892.53363	-1970.77087	119.37221	-890.2052	-2040.67542	72.68584	-913.84308	-1845.87939	45.39246	-953.79639	-1766.53894	1798.92834	-1069.55286	-2845.87476	1034.23401	3357.01758	NaN	NaN	NaN
59	0.58	-1681.49792	1740.09265	-1189.0769	-1651.53186	1714.67615	-1051.91003	-1809.56677	1662.60986	-1172.03723	-1792.1936	1636.68982	-1034.13464	-1842.03772	1524.88928	-1067.03906	-1891.21155	1250.05505	-1027.52441	-1730.16992	1451.45996	-1148.66211	-1682.76892	1279.21069	-1164.36292	-1859.98181	1353.34668	-974.58234	-1882.86548	1496.65137	-1250.93091	-1978.42395	1310.75293	-1294.48132	-2016.828	1176.05518	-1286.39722	-2057.57935	1051.07483	-1295.95508	-2036.13074	912.02277	-1307.07544	-2090.7085	932.12268	-1299.84961	-2097.01831	865.33203	-1310.46741	-1675.76013	1490.18884	-951.12482	-1635.39844	1297.4801	-872.16785	-1592.96228	1154.12671	-878.33374	-1534.05737	1049.90076	-900.49994	-1475.16809	946.46619	-965.93481	-1495.7677	926.21295	-917.44708	-1446.44189	881.09448	-945.73627	-1761.77283	990.82056	-1268.89087	-1639.74109	962.73248	-1041.50452	-1906.74841	1033.06567	-1094.16394	-1856.73621	1030.14148	-991.6864	-1813.06104	692.2403	-1335.32056	-1775.00854	493.92831	-1336.06604	-1786.38232	300.79123	-1347.8042	-1724.57251	83.56918	-1373.23291	-1724.61194	49.07421	-1316.66943	-1586.91797	68.21101	-1453.44067	-1733.78735	665.55878	-934.3363	-1798.91931	461.54712	-946.03381	-1882.09583	298.75424	-894.59857	-1969.93445	121.12262	-890.50171	-2040.04395	74.9661	-913.94653	-1845.61597	45.33522	-953.68951	-1761.70764	1797.98474	-1075.24561	-2845.18945	1034.24316	3360.26514	NaN	NaN	NaN
60	0.59	-1676.36975	1739.24646	-1194.57288	-1646.68982	1713.73865	-1057.36243	-1804.43787	1661.61194	-1178.05786	-1787.30237	1635.6377	-1040.06372	-1836.89575	1523.65955	-1073.23645	-1885.68335	1248.60986	-1034.60596	-1724.61206	1450.70654	-1154.68335	-1676.7002	1278.63269	-1170.38867	-1854.92468	1351.96252	-981.18109	-1877.43457	1495.86829	-1257.39575	-1969.92236	1308.37598	-1297.76233	-2010.92615	1175.16943	-1293.26294	-2051.72485	1050.3241	-1303.07898	-2030.28284	911.20551	-1314.30994	-2083.18921	929.96924	-1305.07288	-2091.50537	864.7193	-1318.04553	-1670.9657	1489.34778	-956.84039	-1631.08398	1296.73901	-877.82916	-1589.86121	1153.36792	-883.71484	-1530.60217	1048.42908	-904.32526	-1473.26367	944.08551	-969.37494	-1493.94043	924.21625	-920.62567	-1445.099	878.47858	-948.68707	-1754.02612	990.40826	-1275.86462	-1633.7699	961.8678	-1047.49243	-1900.38464	1032.06055	-1102.2085	-1851.06543	1029.0459	-999.28821	-1805.52856	690.78961	-1341.18555	-1768.72632	492.22263	-1340.72437	-1781.02014	298.94305	-1351.21143	-1720.74841	81.35049	-1374.92517	-1722.14746	48.14325	-1318.14014	-1581.82971	63.92626	-1452.66345	-1729.13696	665.24719	-939.19366	-1794.92334	461.46616	-949.46454	-1879.58203	299.763	-896.79254	-1968.9917	123.05815	-890.96332	-2039.33276	77.36344	-914.28766	-1845.3999	45.31358	-953.59381	-1757.0592	1797.12427	-1081.18311	-2845.14941	1034.21423	3360.23706	NaN	NaN	NaN
61	0.6	-1671.40198	1738.35217	-1200.39075	-1642.02344	1713.06824	-1062.99463	-1799.29932	1660.49866	-1183.99133	-1782.4281	1634.62048	-1046.05676	-1831.85254	1522.44495	-1079.42249	-1880.09436	1247.03308	-1041.96045	-1719.05811	1449.82104	-1160.54993	-1670.51501	1278.17871	-1176.797	-1849.82568	1350.36292	-987.89148	-1871.45935	1494.78955	-1263.61694	-1964.04224	1307.40735	-1304.57898	-2004.85107	1174.1698	-1300.22974	-2045.58716	1049.35669	-1310.25281	-2024.12988	910.23499	-1321.65979	-2078.73633	930.38721	-1314.32593	-2085.07959	863.42413	-1324.86072	-1667.48181	1489.13184	-962.34357	-1627.12012	1296.24219	-883.77368	-1586.73352	1152.29688	-888.95453	-1528.26416	1046.86853	-908.64368	-1471.32385	941.55426	-972.46667	-1492.45044	922.31818	-923.91748	-1443.95337	875.77142	-951.41876	-1746.05505	989.96906	-1282.95801	-1627.69934	960.85419	-1053.39624	-1893.9696	1031.03247	-1110.526	-1845.39258	1027.87463	-1007.14838	-1798.01221	689.41577	-1347.18506	-1762.854	490.32623	-1345.3374	-1775.92737	296.86584	-1354.58276	-1717.26648	79.31086	-1376.71204	-1721.20752	48.19104	-1320.26172	-1576.54285	57.77818	-1451.60693	-1724.35962	664.91669	-943.89105	-1790.55066	461.53265	-953.12842	-1877.16223	301.15448	-899.21887	-1968.07739	125.25394	-891.52661	-2038.58081	80.00047	-914.65881	-1845.17908	45.29499	-953.48969	-1752.38391	1796.1062	-1087.13782	-2845.20215	1034.09705	3360.38354	NaN	NaN	NaN
62	0.61	-1666.39343	1737.6145	-1206.39246	-1637.12549	1712.45715	-1069.14258	-1794.19141	1659.42712	-1190.18396	-1777.75073	1633.74597	-1052.31165	-1826.9082	1521.13501	-1085.79541	-1874.57214	1245.50928	-1049.55896	-1713.47473	1449.1571	-1166.88721	-1664.98657	1277.20959	-1182.11536	-1844.68091	1348.79114	-994.82666	-1865.76978	1493.8855	-1270.00049	-1960.2229	1307.77515	-1314.0719	-1998.61121	1173.0802	-1307.37305	-2039.24487	1048.27356	-1317.57874	-2017.73633	909.17432	-1329.25427	-2072.18872	929.19739	-1321.75684	-2079.14624	862.79266	-1333.24756	-1663.22974	1488.39795	-968.40875	-1623.03894	1295.26758	-889.2453	-1583.69287	1151.12988	-894.03674	-1525.89832	1045.24072	-912.7959	-1469.65601	938.8819	-975.89795	-1490.97156	920.33954	-927.02264	-1442.88098	872.90839	-954.0495	-1737.98291	989.49072	-1290.11609	-1621.00586	960.18573	-1060.29346	-1887.5166	1029.93994	-1119.13025	-1839.58447	1026.49548	-1015.38214	-1790.32825	687.83832	-1352.95569	-1757.60254	488.61026	-1350.35962	-1770.70654	294.83203	-1357.78833	-1713.3783	78.93117	-1379.20374	-1720.44202	49.13165	-1322.66809	-1571.73657	50.32687	-1452.14185	-1719.4707	664.59869	-948.89398	-1785.94446	461.53894	-956.95807	-1874.48218	302.44437	-901.74347	-1966.96948	127.58936	-892.28015	-2037.7334	82.95729	-915.33667	-1844.87915	45.27163	-953.36383	-1747.76819	1795.18884	-1093.198	-2845.19922	1033.89453	3360.30176	NaN	NaN	NaN
